<svg width="20" height="20" viewBox="0 0 20 20" fill="none" xmlns="http://www.w3.org/2000/svg">
<g clip-path="url(#clip0)">
<path d="M19.2857 9.28569H7.75571C7.36837 7.76376 5.82057 6.84401 4.2986 7.23135C3.28928 7.48825 2.50116 8.27637 2.24426 9.28569H0.714299C0.319796 9.28569 0 9.60549 0 9.99999C0 10.3945 0.319796 10.7142 0.714299 10.7142H2.24431C2.63165 12.2362 4.17945 13.1559 5.70142 12.7686C6.71074 12.5117 7.49887 11.7236 7.75576 10.7142H19.2857C19.6802 10.7142 20 10.3945 20 9.99995C20 9.60545 19.6802 9.28569 19.2857 9.28569Z" fill="#C3C9D6"/>
<path d="M19.2857 2.1425H17.0414C16.6541 0.620574 15.1063 -0.29918 13.5843 0.0881662C12.575 0.345058 11.7869 1.13319 11.53 2.1425H0.714299C0.319796 2.1425 0 2.4623 0 2.8568C0 3.25131 0.319796 3.5711 0.714299 3.5711H11.53C11.9173 5.09303 13.4651 6.01279 14.9871 5.62544C15.9964 5.36855 16.7845 4.58042 17.0414 3.5711H19.2857C19.6802 3.5711 20 3.25131 20 2.8568C20 2.4623 19.6802 2.1425 19.2857 2.1425Z" fill="#C3C9D6"/>
<path d="M19.2857 16.4286H15.6128C15.2255 14.9067 13.6777 13.987 12.1557 14.3743C11.1464 14.6312 10.3583 15.4193 10.1014 16.4286H0.714299C0.319796 16.4286 0 16.7484 0 17.1429C0 17.5374 0.319796 17.8572 0.714299 17.8572H10.1014C10.4888 19.3791 12.0366 20.2989 13.5585 19.9115C14.5679 19.6547 15.356 18.8665 15.6129 17.8572H19.2857C19.6802 17.8572 20 17.5374 20 17.1429C20 16.7484 19.6802 16.4286 19.2857 16.4286Z" fill="#C3C9D6"/>
</g>
<defs>
<clipPath id="clip0">
<rect width="20" height="20" fill="white"/>
</clipPath>
</defs>
</svg>
