<svg width="32" height="32" viewBox="0 0 32 32" fill="none" xmlns="http://www.w3.org/2000/svg">
<path d="M0.511608 21.364L14.7651 7.11079C15.0944 6.78143 15.5336 6.60062 16.012 6.60062C16.4808 6.60062 16.9203 6.78143 17.2491 7.11079L31.4893 21.3505C31.8187 21.6801 32 22.1195 32 22.5883C32 23.0571 31.8189 23.4968 31.4893 23.8262L30.4406 24.8749C30.1112 25.2042 29.6716 25.3861 29.2027 25.3861C28.7339 25.3861 28.2945 25.2042 27.9649 24.8749L16.0071 12.9171L4.03602 24.8887C3.70665 25.2178 3.26724 25.3994 2.79817 25.3994C2.32936 25.3994 1.8902 25.2178 1.56058 24.8887L0.511608 23.8394C-0.170536 23.157 -0.170536 22.0464 0.511608 21.364Z" fill="black"/>
</svg>
