<svg width="12" height="12" viewBox="0 0 12 12" fill="none" xmlns="http://www.w3.org/2000/svg">
<path d="M0.721265 5.15773C0.770366 5.14976 0.820057 5.14609 0.869775 5.14673H9.33554L9.15094 5.06087C8.9705 4.97547 8.80635 4.85924 8.66583 4.71743L6.29182 2.34342C5.97916 2.04495 5.92662 1.56481 6.16732 1.20579C6.44747 0.823203 6.98471 0.740134 7.36732 1.02028C7.39823 1.04292 7.42761 1.06761 7.45522 1.09417L11.7482 5.38714C12.0837 5.72226 12.084 6.26588 11.7489 6.60138C11.7486 6.60159 11.7484 6.60183 11.7482 6.60205L7.45522 10.895C7.11945 11.2298 6.57583 11.2291 6.24098 10.8933C6.21463 10.8669 6.19002 10.8388 6.16732 10.8092C5.92662 10.4501 5.97916 9.96999 6.29182 9.67152L8.66154 7.29321C8.78751 7.16711 8.93235 7.06137 9.09084 6.97983L9.34841 6.86392H0.917025C0.478417 6.8802 0.093606 6.57382 0.0112076 6.1427C-0.0646973 5.67463 0.253198 5.23366 0.721265 5.15773Z" fill="#0D4CA0"/>
</svg>
