<svg width="32" height="32" viewBox="0 0 32 32" fill="none" xmlns="http://www.w3.org/2000/svg">
<path d="M31.4885 8.12922L30.4403 7.07373C30.1104 6.7441 29.6715 6.56251 29.2024 6.56251C28.7336 6.56251 28.2942 6.7441 27.9643 7.07373L16.0072 19.0314L4.0362 7.06046C3.70683 6.73083 3.26741 6.5495 2.79859 6.5495C2.32977 6.5495 1.8901 6.73083 1.56047 7.06046L0.512004 8.10945C-0.170668 8.7916 -0.170668 9.90276 0.512004 10.5849L14.7649 24.889C15.0942 25.2184 15.5331 25.4505 16.0061 25.4505H16.0116C16.4807 25.4505 16.9196 25.2181 17.2489 24.889L31.4885 10.6237C31.8184 10.2943 31.9995 9.84214 32 9.37333C32 8.90425 31.8184 8.45833 31.4885 8.12922Z" fill="black"/>
</svg>