<svg width="16" height="14" viewBox="0 0 16 14" fill="none" xmlns="http://www.w3.org/2000/svg">
<path d="M15.0383 5.87698C14.9728 5.86635 14.9066 5.86145 14.8403 5.86231H3.55259L3.79872 5.74783C4.0393 5.63396 4.25817 5.47898 4.44553 5.28991L7.61087 2.12456C8.02776 1.72661 8.0978 1.08642 7.77687 0.607715C7.40335 0.0976035 6.68703 -0.013155 6.17688 0.360369C6.13567 0.390563 6.09649 0.423476 6.05968 0.458892L0.335724 6.18285C-0.111603 6.62968 -0.111996 7.35451 0.33483 7.80184C0.335116 7.80212 0.335438 7.80244 0.335724 7.80273L6.05968 13.5267C6.50737 13.9731 7.2322 13.9721 7.67867 13.5244C7.7138 13.4892 7.7466 13.4517 7.77687 13.4122C8.0978 12.9335 8.02776 12.2933 7.61087 11.8954L4.45125 8.72429C4.28329 8.55614 4.09018 8.41516 3.87885 8.30644L3.53542 8.15189H14.7773C15.3621 8.17361 15.8752 7.76509 15.985 7.19027C16.0862 6.56618 15.6624 5.97822 15.0383 5.87698Z" fill="#6E7581"/>
</svg>
