<svg width="16" height="16" viewBox="0 0 16 16" fill="none" xmlns="http://www.w3.org/2000/svg">
<path d="M8 0C3.58875 0 0 3.58875 0 8C0 12.4113 3.58875 16 8 16C12.4113 16 16 12.4113 16 8C16 3.58875 12.4113 0 8 0ZM8 14.8349C4.23125 14.8349 1.16506 11.7688 1.16506 8C1.16506 4.23125 4.23125 1.16506 8 1.16506C11.7688 1.16506 14.8349 4.23125 14.8349 8C14.8349 11.7688 11.7688 14.8349 8 14.8349Z" fill="#6E7581"/>
<path d="M12.6947 2.50007L2.48096 12.7138L3.30462 13.5375L13.5184 3.32373L12.6947 2.50007Z" fill="#6E7581"/>
</svg>
