<svg width="18" height="20" viewBox="0 0 18 20" fill="none" xmlns="http://www.w3.org/2000/svg">
<path d="M4.85552 7.77816H7.81835C8.07404 7.77816 8.2813 7.5709 8.2813 7.31521C8.2813 7.05953 8.07404 6.85226 7.81835 6.85226H4.85552C4.59984 6.85226 4.39258 7.05953 4.39258 7.31521C4.39258 7.5709 4.59988 7.77816 4.85552 7.77816Z" fill="#0D4CA0"/>
<path d="M10.5961 9.8615H4.85553C4.59984 9.8615 4.39258 10.0688 4.39258 10.3245C4.39258 10.5801 4.59984 10.7874 4.85553 10.7874H10.596C10.8517 10.7874 11.059 10.5801 11.059 10.3245C11.059 10.0688 10.8517 9.8615 10.5961 9.8615Z" fill="#0D4CA0"/>
<path d="M10.5961 12.8706H4.85553C4.59984 12.8706 4.39258 13.0778 4.39258 13.3335C4.39258 13.5892 4.59984 13.7964 4.85553 13.7964H10.596C10.8517 13.7964 11.059 13.5892 11.059 13.3335C11.059 13.0778 10.8517 12.8706 10.5961 12.8706Z" fill="#0D4CA0"/>
<path d="M17.2159 16.3427V1.75986C17.2546 0.827455 16.5301 0.0401905 15.5977 0.00146744C15.5584 -0.000171863 15.5191 -0.000437696 15.4798 0.000669942H5.52642C4.50792 0.000669942 3.5589 0.74137 3.5589 1.75986V2.54686H2.74877C1.68969 2.57012 0.829676 3.40989 0.78125 4.46808V19.0741C0.811378 19.3563 0.987005 19.6021 1.2442 19.7222C1.51043 19.8398 1.82132 19.7849 2.0312 19.5833L3.44317 18.3102L5.13294 19.8148C5.25899 19.9317 5.42398 19.9977 5.59589 20C5.76695 19.9936 5.93057 19.9281 6.05884 19.8148L7.72543 18.3102L9.39203 19.8148C9.65565 20.0506 10.0543 20.0506 10.3179 19.8148L12.0077 18.3102L13.3965 19.5833C13.5647 19.7903 13.8562 19.8486 14.0909 19.7222C14.3209 19.5902 14.4557 19.3387 14.4382 19.0741V15.7871L14.7159 15.5788L16.1279 16.8519C16.2585 16.9765 16.4336 17.0432 16.614 17.0371C16.694 17.0443 16.7744 17.0283 16.8454 16.9908C17.0888 16.8697 17.235 16.6138 17.2159 16.3427ZM13.5123 18.5649L12.4243 17.5001C12.1792 17.2495 11.7793 17.2392 11.5216 17.4769L9.83181 18.9815L8.18834 17.4769C7.91772 17.2603 7.53306 17.2603 7.26244 17.4769L5.59584 18.9815L3.90607 17.4769C3.61415 17.2377 3.19125 17.2475 2.91075 17.5001L1.7071 18.5649V4.46813C1.7534 3.92104 2.20009 3.4942 2.74873 3.47281H12.7021C13.2113 3.47281 13.5123 3.95888 13.5123 4.46813V18.5649ZM16.29 1.75986V15.8335L15.1326 14.7687C14.9474 14.5835 14.9012 14.5372 14.4382 14.6066V4.46813C14.4382 3.44963 13.7206 2.54691 12.7021 2.54691H4.48479V1.75986C4.48479 1.25062 5.01717 0.926567 5.52642 0.926567H15.4798C15.9008 0.899186 16.2643 1.21823 16.2916 1.63922C16.2943 1.67941 16.2937 1.71977 16.29 1.75986Z" fill="#0D4CA0"/>
</svg>
