<svg width="24" height="24" viewBox="0 0 24 24" fill="none" xmlns="http://www.w3.org/2000/svg">
<path d="M18.7259 2.51383C18.4219 2.37376 18.0637 2.42826 17.815 2.65235L16.5029 3.81413C16.4672 3.8459 16.4133 3.84571 16.3778 3.81376L14.5925 2.21699C14.2696 1.92767 13.7808 1.92767 13.4579 2.21699L11.6742 3.81229C11.6384 3.84434 11.5841 3.84434 11.5482 3.81229L9.76437 2.21699C9.44148 1.92772 8.95266 1.92772 8.62977 2.21699L6.84424 3.81376C6.8085 3.84571 6.75451 3.84585 6.71858 3.81409L5.40528 2.65235C5.05686 2.34251 4.52322 2.37376 4.21338 2.72217C4.07444 2.87842 3.99842 3.08066 4.00002 3.28971V20.7103C3.9969 21.1773 4.37293 21.5584 4.83991 21.5615C5.04911 21.5629 5.25135 21.4867 5.40764 21.3477L6.71976 20.1859C6.75545 20.1541 6.8093 20.1543 6.8448 20.1862L8.6301 21.783C8.95299 22.0723 9.44181 22.0723 9.7647 21.783L11.5486 20.1877C11.5845 20.1557 11.6387 20.1557 11.6746 20.1877L13.4584 21.783C13.7814 22.0721 14.2702 22.0721 14.593 21.783L16.3787 20.1862C16.4144 20.1542 16.4684 20.1541 16.5043 20.1859L17.8176 21.3476C18.1662 21.6573 18.6998 21.6258 19.0095 21.2773C19.1482 21.1212 19.2241 20.9192 19.2226 20.7103V3.28971C19.227 2.95505 19.0317 2.64989 18.7259 2.51383ZM7.12997 8.7853H11.8379C12.0468 8.7853 12.2161 8.95464 12.2161 9.1635C12.2161 9.37236 12.0468 9.5417 11.8379 9.5417H7.12997C6.9211 9.5417 6.75177 9.37236 6.75177 9.1635C6.75177 8.95464 6.9211 8.7853 7.12997 8.7853ZM16.0927 15.2147H7.12997C6.9211 15.2147 6.75177 15.0454 6.75177 14.8365C6.75177 14.6276 6.9211 14.4583 7.12997 14.4583H16.0927C16.3015 14.4583 16.4709 14.6276 16.4709 14.8365C16.4709 15.0454 16.3015 15.2147 16.0927 15.2147ZM16.0927 12.3782H7.12997C6.9211 12.3782 6.75177 12.2089 6.75177 12C6.75177 11.7911 6.9211 11.6218 7.12997 11.6218H16.0927C16.3015 11.6218 16.4709 11.7911 16.4709 12C16.4709 12.2089 16.3015 12.3782 16.0927 12.3782Z" fill="#C3C9D6"/>
</svg>
