<svg width="24" height="24" viewBox="0 0 24 24" fill="none" xmlns="http://www.w3.org/2000/svg">
<path d="M21.5833 10H2.41668C2.16668 10 2 10.1667 2 10.4167V16.25C2 17.4167 2.91668 18.3333 4.08332 18.3333H19.9166C21.0833 18.3333 21.9999 17.4166 21.9999 16.25V10.4167C22 10.1667 21.8333 10 21.5833 10ZM4.91667 13.3334H8.24999C8.49999 13.3334 8.66667 13.5 8.66667 13.75C8.66667 14 8.49999 14.1667 8.24999 14.1667H4.91667C4.66667 14.1667 4.5 14 4.5 13.75C4.5 13.5 4.66667 13.3334 4.91667 13.3334ZM10.75 15.8333H4.91667C4.66667 15.8333 4.5 15.6667 4.5 15.4167C4.5 15.1667 4.66667 15 4.91667 15H10.75C11 15 11.1667 15.1667 11.1667 15.4167C11.1667 15.6667 11 15.8333 10.75 15.8333ZM17.8333 15.8333C17.5 15.8333 17.25 15.75 17 15.5833C16.75 15.75 16.5 15.8333 16.1667 15.8333C15.25 15.8333 14.5 15.0833 14.5 14.1667C14.5 13.25 15.25 12.5 16.1667 12.5C16.5 12.5 16.75 12.5833 17 12.75C17.25 12.5833 17.5 12.5 17.8333 12.5C18.75 12.5 19.5 13.25 19.5 14.1667C19.5 15.0833 18.75 15.8333 17.8333 15.8333Z" fill="#C3C9D6"/>
<path d="M19.9166 5H4.08332C2.91668 5 2 5.91668 2 7.08335V7.91667C2 8.16667 2.16668 8.33335 2.41668 8.33335H21.5833C21.8333 8.33335 22 8.16667 22 7.91667V7.08335C22 5.91668 21.0833 5 19.9166 5Z" fill="#C3C9D6"/>
</svg>
