<svg width="16" height="16" viewBox="0 0 16 16" fill="none" xmlns="http://www.w3.org/2000/svg">
<path d="M9.46586 8.01631L15.696 1.78604C16.1014 1.38079 16.1014 0.725551 15.696 0.320297C15.2907 -0.0849559 14.6355 -0.0849559 14.2302 0.320297L7.99992 6.55057L1.76983 0.320297C1.36439 -0.0849559 0.709337 -0.0849559 0.304083 0.320297C-0.101361 0.725551 -0.101361 1.38079 0.304083 1.78604L6.53417 8.01631L0.304083 14.2466C-0.101361 14.6518 -0.101361 15.3071 0.304083 15.7123C0.506046 15.9145 0.771596 16.016 1.03696 16.016C1.30232 16.016 1.56768 15.9145 1.76983 15.7123L7.99992 9.48206L14.2302 15.7123C14.4324 15.9145 14.6977 16.016 14.9631 16.016C15.2284 16.016 15.4938 15.9145 15.696 15.7123C16.1014 15.3071 16.1014 14.6518 15.696 14.2466L9.46586 8.01631Z" fill="#6E7581"/>
</svg>
