<svg width="24" height="24" viewBox="0 0 24 24" fill="none" xmlns="http://www.w3.org/2000/svg">
<path d="M12 6.51562C9.73863 6.51562 7.89844 8.35582 7.89844 10.6172C7.89844 12.8786 9.73863 14.7188 12 14.7188C14.2614 14.7188 16.1016 12.8786 16.1016 10.6172C16.1016 8.35582 14.2614 6.51562 12 6.51562ZM10.2422 8.85937C10.5658 8.85937 10.8281 9.12164 10.8281 9.44531C10.8281 9.76891 10.5658 10.0312 10.2422 10.0312C9.91859 10.0312 9.65625 9.76891 9.65625 9.44531C9.65625 9.12168 9.91859 8.85937 10.2422 8.85937ZM14.0714 12.7881C13.8425 13.017 13.4717 13.017 13.2428 12.7881C12.5573 12.1026 11.4427 12.1026 10.7571 12.7881C10.5283 13.017 10.1575 13.017 9.92859 12.7881C9.69973 12.5593 9.69973 12.1884 9.92859 11.9596C11.0707 10.8175 12.9292 10.8175 14.0714 11.9596C14.3003 12.1885 14.3003 12.5593 14.0714 12.7881ZM13.7578 10.0312C13.4342 10.0312 13.1719 9.76891 13.1719 9.44531C13.1719 9.12164 13.4342 8.85937 13.7578 8.85937C14.0814 8.85937 14.3438 9.12164 14.3438 9.44531C14.3438 9.76891 14.0814 10.0312 13.7578 10.0312Z" fill="#C3C9D6"/>
<path d="M20.2422 3H3.75781C2.78852 3 2 3.78852 2 4.75781V16.4766C2 17.4459 2.78852 18.2344 3.75781 18.2344H5.55469V21.1641C5.55469 21.6866 6.18844 21.9448 6.55488 21.5783L9.89883 18.2344H20.2422C21.2115 18.2344 22 17.4459 22 16.4766V4.75781C22 3.78852 21.2115 3 20.2422 3ZM12 15.8906C9.09207 15.8906 6.72656 13.5251 6.72656 10.6172C6.72656 7.70926 9.09207 5.34375 12 5.34375C14.9079 5.34375 17.2734 7.70926 17.2734 10.6172C17.2734 13.5251 14.9079 15.8906 12 15.8906Z" fill="#C3C9D6"/>
</svg>
