<svg width="24" height="25" viewBox="0 0 24 25" fill="none" xmlns="http://www.w3.org/2000/svg">
<path d="M12 9.79883C13.8769 9.79883 15.3984 8.2773 15.3984 6.40039C15.3984 4.52349 13.8769 3.00195 12 3.00195C10.1231 3.00195 8.60156 4.52349 8.60156 6.40039C8.60156 8.2773 10.1231 9.79883 12 9.79883Z" fill="white"/>
<path d="M18.875 9.79877C20.0615 9.79877 21.0234 8.83688 21.0234 7.65033C21.0234 6.46378 20.0615 5.50189 18.875 5.50189C17.6885 5.50189 16.7266 6.46378 16.7266 7.65033C16.7266 8.83688 17.6885 9.79877 18.875 9.79877Z" fill="white"/>
<path d="M5.125 9.79877C6.31155 9.79877 7.27344 8.83688 7.27344 7.65033C7.27344 6.46378 6.31155 5.50189 5.125 5.50189C3.93845 5.50189 2.97656 6.46378 2.97656 7.65033C2.97656 8.83688 3.93845 9.79877 5.125 9.79877Z" fill="white"/>
<path d="M7.2418 11.7281C6.39609 11.0352 5.6302 11.127 4.65234 11.127C3.18984 11.127 2 12.3098 2 13.7633V18.0293C2 18.6605 2.51523 19.1738 3.14883 19.1738C5.88422 19.1738 5.55469 19.2233 5.55469 19.0559C5.55469 16.033 5.19664 13.8161 7.2418 11.7281Z" fill="white"/>
<path d="M12.9301 11.1425C11.2221 11.0001 9.73753 11.1442 8.45702 12.2011C6.31417 13.9175 6.72655 16.2286 6.72655 19.0558C6.72655 19.8038 7.33515 20.4238 8.09452 20.4238C16.3399 20.4238 16.6681 20.6898 17.157 19.607C17.3174 19.2408 17.2734 19.3572 17.2734 15.8543C17.2734 13.072 14.8643 11.1425 12.9301 11.1425Z" fill="white"/>
<path d="M19.3476 11.1269C18.3644 11.1269 17.6027 11.0361 16.7582 11.7281C18.7881 13.8006 18.4453 15.8662 18.4453 19.0558C18.4453 19.2243 18.1717 19.1738 20.8101 19.1738C21.4664 19.1738 22 18.6421 22 17.9886V13.7632C22 12.3097 20.8101 11.1269 19.3476 11.1269Z" fill="white"/>
</svg>
