<svg width="24" height="25" viewBox="0 0 24 25" fill="none" xmlns="http://www.w3.org/2000/svg">
<path d="M6.58335 11.1686H2.41668C2.18668 11.1686 2 11.3553 2 11.5853V21.5853C2 21.8153 2.18668 22.0019 2.41668 22.0019H6.58335C6.81335 22.0019 7.00003 21.8153 7.00003 21.5853V11.5853C6.99999 11.3553 6.81417 11.1686 6.58335 11.1686Z" fill="#C3C9D6"/>
<path d="M14.0666 2.00195H9.89996C9.66996 2.00195 9.48328 2.18863 9.48328 2.41863V21.5853C9.48328 21.8153 9.66996 22.0019 9.89996 22.0019H14.0666C14.2966 22.0019 14.4833 21.8153 14.4833 21.5853V2.41863C14.4833 2.18863 14.2966 2.00195 14.0666 2.00195Z" fill="#C3C9D6"/>
<path d="M21.5666 6.16864H17.4C17.17 6.16864 16.9833 6.35532 16.9833 6.58532V21.5853C16.9833 21.8153 17.17 22.002 17.4 22.002H21.5666C21.7966 22.002 21.9833 21.8153 21.9833 21.5853V6.58532C21.9833 6.35528 21.7966 6.16864 21.5666 6.16864Z" fill="#C3C9D6"/>
</svg>
