<svg width="16" height="16" viewBox="0 0 16 16" fill="none" xmlns="http://www.w3.org/2000/svg">
<g clip-path="url(#clip0)">
<path d="M10.2069 5.79684C9.99995 5.79684 9.83221 5.96458 9.83221 6.17154V13.2535C9.83221 13.4603 9.99995 13.6282 10.2069 13.6282C10.4139 13.6282 10.5816 13.4603 10.5816 13.2535V6.17154C10.5816 5.96458 10.4139 5.79684 10.2069 5.79684Z" fill="#FB6060"/>
<path d="M5.78541 5.79684C5.57845 5.79684 5.41071 5.96458 5.41071 6.17154V13.2535C5.41071 13.4603 5.57845 13.6282 5.78541 13.6282C5.99238 13.6282 6.16012 13.4603 6.16012 13.2535V6.17154C6.16012 5.96458 5.99238 5.79684 5.78541 5.79684Z" fill="#FB6060"/>
<path d="M2.56294 4.7633V13.9953C2.56294 14.5409 2.76303 15.0534 3.11256 15.4211C3.46048 15.7898 3.94467 15.9991 4.45141 15.9999H11.541C12.0478 15.9991 12.532 15.7898 12.8798 15.4211C13.2293 15.0534 13.4294 14.5409 13.4294 13.9953V4.7633C14.1242 4.57888 14.5745 3.90762 14.4815 3.19466C14.3884 2.48184 13.7811 1.94861 13.0622 1.94847H11.1437V1.48009C11.1459 1.0862 10.9902 0.707985 10.7113 0.429737C10.4325 0.151635 10.0537 -0.0032243 9.65982 -4.17245e-06H6.33255C5.93867 -0.0032243 5.55986 0.151635 5.28103 0.429737C5.00219 0.707985 4.84646 1.0862 4.84865 1.48009V1.94847H2.93019C2.21122 1.94861 1.60393 2.48184 1.51084 3.19466C1.4179 3.90762 1.86813 4.57888 2.56294 4.7633ZM11.541 15.2505H4.45141C3.81075 15.2505 3.31236 14.7002 3.31236 13.9953V4.79623H12.68V13.9953C12.68 14.7002 12.1816 15.2505 11.541 15.2505ZM5.59806 1.48009C5.59558 1.28497 5.67227 1.09718 5.81074 0.959448C5.94906 0.821715 6.13729 0.746042 6.33255 0.749408H9.65982C9.85508 0.746042 10.0433 0.821715 10.1816 0.959448C10.3201 1.09704 10.3968 1.28497 10.3943 1.48009V1.94847H5.59806V1.48009ZM2.93019 2.69788H13.0622C13.4347 2.69788 13.7367 2.99984 13.7367 3.37235C13.7367 3.74486 13.4347 4.04682 13.0622 4.04682H2.93019C2.55768 4.04682 2.25571 3.74486 2.25571 3.37235C2.25571 2.99984 2.55768 2.69788 2.93019 2.69788Z" fill="#FB6060"/>
<path d="M7.99622 5.79684C7.78926 5.79684 7.62152 5.96458 7.62152 6.17154V13.2535C7.62152 13.4603 7.78926 13.6282 7.99622 13.6282C8.20318 13.6282 8.37092 13.4603 8.37092 13.2535V6.17154C8.37092 5.96458 8.20318 5.79684 7.99622 5.79684Z" fill="#FB6060"/>
</g>
<defs>
<clipPath id="clip0">
<rect width="16" height="16" fill="white"/>
</clipPath>
</defs>
</svg>
