<svg width="20" height="21" viewBox="0 0 20 21" fill="none" xmlns="http://www.w3.org/2000/svg">
<path d="M4.72656 4.68945H5.89844V5.86133H4.72656V4.68945Z" fill="#C3C9D6"/>
<path d="M9.41406 4.68945H10.5859V5.86133H9.41406V4.68945Z" fill="#C3C9D6"/>
<path d="M11.7578 4.68945H12.9297V5.86133H11.7578V4.68945Z" fill="#C3C9D6"/>
<path d="M7.07031 4.68945H8.24219V5.86133H7.07031V4.68945Z" fill="#C3C9D6"/>
<path d="M5.89844 12.8926V16.4863H14.1016V12.8926H12.9297V14.6504C12.9297 14.9738 12.6672 15.2363 12.3438 15.2363C12.0203 15.2363 11.7578 14.9738 11.7578 14.6504V12.8926H10.5859V14.6504C10.5859 14.9738 10.3234 15.2363 10 15.2363C9.67656 15.2363 9.41406 14.9738 9.41406 14.6504V12.8926H8.24219V14.6504C8.24219 14.9738 7.97969 15.2363 7.65625 15.2363C7.33281 15.2363 7.07031 14.9738 7.07031 14.6504V12.8926H5.89844Z" fill="#C3C9D6"/>
<path d="M15.2734 17.0723C15.2734 17.3957 15.0109 17.6582 14.6875 17.6582H5.3125C4.98906 17.6582 4.72656 17.3957 4.72656 17.0723V12.8926H2.38281V18.2441C2.38281 19.2133 3.17148 20.002 4.14062 20.002H15.8594C16.8285 20.002 17.6172 19.2133 17.6172 18.2441V12.8926H15.2734V17.0723Z" fill="#C3C9D6"/>
<path d="M19.4141 4.68945H18.7891V1.75977C18.7891 0.790625 18.0004 0.00195312 17.0312 0.00195312H2.96875C1.99961 0.00195312 1.21094 0.790625 1.21094 1.75977V4.68945H0.585938C0.262344 4.68945 0 4.9518 0 5.27539C0 5.59898 0.262344 5.86133 0.585938 5.86133H1.21094V11.7207H18.7891V5.86133H19.4141C19.7377 5.86133 20 5.59898 20 5.27539C20 4.9518 19.7377 4.68945 19.4141 4.68945ZM5.3125 9.37695C4.98906 9.37695 4.72656 9.11445 4.72656 8.79102C4.72656 8.46758 4.98906 8.20508 5.3125 8.20508C5.63594 8.20508 5.89844 8.46758 5.89844 8.79102C5.89844 9.11445 5.63594 9.37695 5.3125 9.37695ZM7.65625 9.37695C7.33281 9.37695 7.07031 9.11445 7.07031 8.79102C7.07031 8.46758 7.33281 8.20508 7.65625 8.20508C7.97969 8.20508 8.24219 8.46758 8.24219 8.79102C8.24219 9.11445 7.97969 9.37695 7.65625 9.37695ZM10 9.37695C9.67656 9.37695 9.41406 9.11445 9.41406 8.79102C9.41406 8.46758 9.67656 8.20508 10 8.20508C10.3234 8.20508 10.5859 8.46758 10.5859 8.79102C10.5859 9.11445 10.3234 9.37695 10 9.37695ZM12.3438 9.37695C12.0203 9.37695 11.7578 9.11445 11.7578 8.79102C11.7578 8.46758 12.0203 8.20508 12.3438 8.20508C12.6672 8.20508 12.9297 8.46758 12.9297 8.79102C12.9297 9.11445 12.6672 9.37695 12.3438 9.37695ZM13.5156 7.0332H4.14062C3.81719 7.0332 3.55469 6.7707 3.55469 6.44727V4.10352C3.55469 3.78008 3.81719 3.51758 4.14062 3.51758H13.5156C13.8391 3.51758 14.1016 3.78008 14.1016 4.10352V6.44727C14.1016 6.7707 13.8391 7.0332 13.5156 7.0332ZM14.6875 9.37695C14.3641 9.37695 14.1016 9.11445 14.1016 8.79102C14.1016 8.46758 14.3641 8.20508 14.6875 8.20508C15.0109 8.20508 15.2734 8.46758 15.2734 8.79102C15.2734 9.11445 15.0109 9.37695 14.6875 9.37695ZM16.4453 6.44727C16.4453 6.7707 16.1828 7.0332 15.8594 7.0332C15.5359 7.0332 15.2734 6.7707 15.2734 6.44727V4.10352C15.2734 3.78008 15.5359 3.51758 15.8594 3.51758C16.1828 3.51758 16.4453 3.78008 16.4453 4.10352V6.44727Z" fill="#C3C9D6"/>
</svg>
