<svg width="16" height="16" viewBox="0 0 16 16" fill="none" xmlns="http://www.w3.org/2000/svg">
<g clip-path="url(#clip0)">
<path d="M8.13712 5.24139H9.79228V14.3448C9.79228 14.4972 9.91579 14.6207 10.0681 14.6207H12.8268C12.9791 14.6207 13.1026 14.4972 13.1026 14.3448V5.24139H14.7578C14.8601 5.24213 14.9542 5.18544 15.0013 5.09465C15.0485 5.00386 15.0407 4.8943 14.9812 4.81105L11.6792 0.113115C11.6272 0.041608 11.5441 -0.000701904 11.4557 -0.000701904C11.3673 -0.000701904 11.2843 0.041608 11.2323 0.113115L10.3716 1.33243L8.45987 4.03863L7.91367 4.81105C7.85421 4.8943 7.84645 5.00386 7.8936 5.09465C7.94074 5.18544 8.03482 5.24213 8.13712 5.24139Z" fill="#6E7581"/>
<path d="M1.56504 11.9607L3.47676 14.6669L4.33744 15.8862C4.38943 15.9577 4.47249 16 4.56089 16C4.64929 16 4.73235 15.9577 4.78434 15.8862L8.0864 11.1883C8.14586 11.105 8.15362 10.9955 8.10647 10.9047C8.05933 10.8139 7.96526 10.7572 7.86296 10.7579H6.20779V1.65517C6.20779 1.50281 6.08428 1.3793 5.93192 1.3793H3.17331C3.02096 1.3793 2.89745 1.50281 2.89745 1.65517V10.7579H1.24228C1.13998 10.7572 1.0459 10.8139 0.99876 10.9047C0.951617 10.9955 0.959371 11.105 1.01883 11.1883L1.56504 11.9607Z" fill="#6E7581"/>
</g>
<defs>
<clipPath id="clip0">
<rect width="16" height="16" fill="white"/>
</clipPath>
</defs>
</svg>
