<svg width="20" height="20" viewBox="0 0 20 20" fill="none" xmlns="http://www.w3.org/2000/svg">
<path d="M12.6573 10.0391H12.8516V6.95902C12.6865 6.93004 12.517 6.91406 12.3438 6.91406H7.65625C6.04082 6.91406 4.72656 8.22832 4.72656 9.84375V13.0734V17.0703C4.72656 18.6857 6.04082 20 7.65625 20H12.3438C13.9592 20 15.2734 18.6857 15.2734 17.0703V15.2714C15.0981 15.3727 14.8968 15.428 14.6875 15.428C14.2948 15.428 13.9303 15.233 13.7125 14.9062L11.6823 11.861C11.4421 11.5007 11.4198 11.0397 11.6241 10.6579C11.8284 10.2762 12.2243 10.0391 12.6573 10.0391ZM7.8125 10.3516H8.75C9.07359 10.3516 9.33594 10.6139 9.33594 10.9375C9.33594 11.2611 9.07359 11.5234 8.75 11.5234H7.8125C7.48891 11.5234 7.22656 11.2611 7.22656 10.9375C7.22656 10.6139 7.48891 10.3516 7.8125 10.3516ZM7.8125 12.8516H8.75C9.07359 12.8516 9.33594 13.1139 9.33594 13.4375C9.33594 13.7611 9.07359 14.0234 8.75 14.0234H7.8125C7.48891 14.0234 7.22656 13.7611 7.22656 13.4375C7.22656 13.1139 7.48891 12.8516 7.8125 12.8516ZM12.1875 15.3516C12.5111 15.3516 12.7734 15.6139 12.7734 15.9375C12.7734 16.2611 12.5111 16.5234 12.1875 16.5234H7.8125C7.48891 16.5234 7.22656 16.2611 7.22656 15.9375C7.22656 15.6139 7.48891 15.3516 7.8125 15.3516H12.1875Z" fill="#0D4CA0"/>
<path d="M14.9105 1.98555C14.4878 1.98555 14.0708 2.04258 13.666 2.15551C12.5395 0.780156 10.9542 0 9.25586 0C8.11805 0 7.01242 0.354766 6.05844 1.02598C5.23457 1.60559 4.55492 2.39742 4.07711 3.33043C3.02414 3.43621 2.04625 3.94125 1.29148 4.7766C0.458672 5.69789 0 6.91285 0 8.19766C0 9.39629 0.406484 10.5508 1.14465 11.4486C1.78609 12.2287 2.62973 12.7607 3.55469 12.9768V9.84375C3.55469 7.58215 5.39465 5.74219 7.65625 5.74219H12.3438C12.5999 5.74219 12.8505 5.76602 13.0938 5.81117C13.3082 5.53199 13.645 5.35156 14.0234 5.35156H15.3516C15.9977 5.35156 16.5234 5.87726 16.5234 6.52344V10.0391H16.7177C17.1507 10.0391 17.5466 10.2762 17.7509 10.658C17.9552 11.0397 17.9329 11.5007 17.6927 11.861L17.3198 12.4203C18.0961 11.9624 18.7523 11.2931 19.2233 10.4758C19.7314 9.59414 20 8.57754 20 7.53594C20 4.47543 17.7169 1.98555 14.9105 1.98555Z" fill="#0D4CA0"/>
<path d="M14.0231 6.52344V10.625C14.0231 10.9486 13.7607 11.2109 13.4371 11.2109H12.6572L14.6872 14.2562L16.7173 11.2109H15.9372C15.6136 11.2109 15.3512 10.9486 15.3512 10.625V6.52344H14.0231Z" fill="#0D4CA0"/>
</svg>
