<svg width="16" height="16" viewBox="0 0 16 16" fill="none" xmlns="http://www.w3.org/2000/svg">
<g clip-path="url(#clip0)">
<path d="M14 15.9998H2C0.897333 15.9998 0 15.1025 0 13.9998V11.3332C0 10.9652 0.298667 10.6665 0.666667 10.6665C1.03467 10.6665 1.33333 10.9652 1.33333 11.3332V13.9998C1.33333 14.3672 1.63267 14.6665 2 14.6665H14C14.3673 14.6665 14.6667 14.3672 14.6667 13.9998V11.3332C14.6667 10.9652 14.9653 10.6665 15.3333 10.6665C15.7013 10.6665 16 10.9652 16 11.3332V13.9998C16 15.1025 15.1027 15.9998 14 15.9998Z" fill="#0D4CA0"/>
<path d="M11.1379 8.47133L8.47129 11.138C8.21062 11.3987 7.78929 11.3987 7.52862 11.138L4.86196 8.47133C4.6713 8.28067 4.61396 7.994 4.7173 7.74467C4.82063 7.496 5.06396 7.33333 5.3333 7.33333H7.33329V0.666667C7.33329 0.298667 7.63196 0 7.99996 0C8.36795 0 8.66662 0.298667 8.66662 0.666667V7.33333H10.6666C10.9359 7.33333 11.1793 7.496 11.2826 7.74467C11.3859 7.994 11.3286 8.28067 11.1379 8.47133Z" fill="#0D4CA0"/>
</g>
<defs>
<clipPath id="clip0">
<rect width="16" height="16" fill="white"/>
</clipPath>
</defs>
</svg>
