<svg width="16" height="16" viewBox="0 0 16 16" fill="none" xmlns="http://www.w3.org/2000/svg">
<path d="M15.502 1.94696L14.0522 0.496961C13.3897 -0.165506 12.3119 -0.165475 11.6494 0.496961C11.0257 1.12074 1.49893 10.6482 0.862277 11.2849C0.794465 11.3527 0.749027 11.4428 0.73284 11.531L0.00790212 15.446C-0.0201916 15.5977 0.0281834 15.7537 0.13734 15.8628C0.246621 15.9721 0.402558 16.0204 0.554152 15.9923L4.46881 15.2672C4.55928 15.2504 4.64821 15.2045 4.7149 15.1378L15.502 4.34986C16.166 3.68586 16.1661 2.61105 15.502 1.94696ZM1.05384 14.9462L1.49237 12.578L3.42193 14.5077L1.05384 14.9462ZM4.38346 14.1434L1.85662 11.6164L11.0819 2.39036L13.6088 4.91739L4.38346 14.1434ZM14.8391 3.68695L14.2717 4.25449L11.7448 1.72746L12.3123 1.15993C12.6092 0.862991 13.0923 0.86296 13.3892 1.15993L14.8391 2.60993C15.1368 2.90758 15.1368 3.38927 14.8391 3.68695Z" fill="#0D4CA0"/>
</svg>
