<svg width="12" height="12" viewBox="0 0 12 12" fill="none" xmlns="http://www.w3.org/2000/svg">
<path d="M6 0C2.69147 0 0 2.69147 0 6C0 9.30853 2.69147 12 6 12C9.30853 12 12 9.30853 12 6C12 2.69147 9.30853 0 6 0ZM6 9.49997C5.72397 9.49997 5.50003 9.27603 5.50003 9C5.50003 8.72397 5.72397 8.50003 6 8.50003C6.27603 8.50003 6.49997 8.72397 6.49997 9C6.49997 9.27603 6.27603 9.49997 6 9.49997ZM6.49997 7.00003C6.49997 7.27597 6.27603 7.5 6 7.5C5.72397 7.5 5.50003 7.27597 5.50003 7.00003V3C5.50003 2.72397 5.72397 2.50003 6 2.50003C6.27603 2.50003 6.49997 2.72397 6.49997 3V7.00003Z" fill="#BB8B0F"/>
</svg>
