<svg width="16" height="16" viewBox="0 0 16 16" fill="none" xmlns="http://www.w3.org/2000/svg">
<path d="M15.1399 3.17223e-05H0.875479C0.623733 -0.000444168 0.393086 0.140102 0.278079 0.363928C0.161487 0.590768 0.18195 0.863928 0.330903 1.0711L5.5568 8.43293C5.55854 8.43547 5.56045 8.43785 5.56219 8.44039C5.75207 8.69673 5.85486 9.00733 5.85534 9.32633V15.3284C5.85423 15.5061 5.92402 15.6769 6.04918 15.803C6.1745 15.929 6.34487 16 6.52253 16C6.61279 15.9999 6.70226 15.9819 6.7857 15.9472L9.72225 14.8276C9.98526 14.7472 10.1599 14.4989 10.1599 14.2001V9.32633C10.1604 9.00733 10.2632 8.69673 10.4529 8.44039C10.4546 8.43785 10.4565 8.43547 10.4583 8.43293L15.6843 1.07094C15.8333 0.863928 15.8538 0.590926 15.7372 0.364086C15.6223 0.140102 15.3915 -0.000444168 15.1399 3.17223e-05Z" fill="#0D4CA0"/>
</svg>
