<svg width="12" height="16" viewBox="0 0 12 16" fill="none" xmlns="http://www.w3.org/2000/svg">
<path d="M11.7332 1.93334C11.589 1.84944 11.4108 1.84944 11.2666 1.93334C10.7079 2.24328 10.0788 2.404 9.43991 2.4C8.50581 2.42066 7.60263 2.06516 6.93325 1.41334C6.1605 0.656938 5.11569 0.243625 4.0346 0.266688C3.16394 0.259156 2.31269 0.523938 1.59994 1.02403V0.8C1.59994 0.358188 1.24178 0 0.799939 0C0.358095 0 -6.10352e-05 0.358156 -6.10352e-05 0.8V15.2C-6.10352e-05 15.6418 0.358095 16 0.799939 16C1.24175 16 1.59994 15.6418 1.59994 15.2V8.26666C1.68831 8.25837 1.7725 8.22509 1.8426 8.17066C2.47703 7.70344 3.24675 7.45625 4.0346 7.46666C4.97041 7.44516 5.87556 7.80069 6.5466 8.45331C7.31788 9.20863 8.36063 9.62187 9.43994 9.59997C10.2671 9.60959 11.0784 9.37291 11.7706 8.91997C11.9187 8.81731 12.005 8.64678 11.9999 8.46663V2.4C12.0016 2.20775 11.8997 2.02947 11.7332 1.93334Z" fill="#6E7581"/>
</svg>
