<svg width="24" height="25" viewBox="0 0 24 25" fill="none" xmlns="http://www.w3.org/2000/svg">
<path d="M21.5294 9.72473L19.9922 9.39056C19.8586 8.98132 19.693 8.58215 19.4976 8.19763L20.3485 6.87393C20.5005 6.63742 20.4671 6.3269 20.2684 6.12823L17.8737 3.73352C17.675 3.53485 17.3645 3.50143 17.128 3.65341L15.8043 4.50439C15.4198 4.30893 15.0206 4.14337 14.6114 4.0097L14.2772 2.47253C14.2176 2.19788 13.9743 2.00195 13.6933 2.00195H10.3067C10.0257 2.00195 9.78244 2.19788 9.72278 2.47253L9.38861 4.0097C8.97937 4.14337 8.5802 4.30893 8.19568 4.50439L6.87198 3.65341C6.63547 3.50143 6.32495 3.53485 6.12628 3.73352L3.73157 6.12823C3.5329 6.3269 3.49948 6.63742 3.65146 6.87393L4.50244 8.19763C4.30698 8.58215 4.14142 8.98132 4.00775 9.39056L2.47058 9.72473C2.19592 9.78455 2 10.0276 2 10.3087V13.6952C2 13.9763 2.19592 14.2194 2.47058 14.2792L4.00775 14.6133C4.14142 15.0226 4.30698 15.4218 4.50244 15.8063L3.65146 17.13C3.49948 17.3665 3.5329 17.677 3.73157 17.8757L6.12628 20.2704C6.32495 20.4691 6.63547 20.5025 6.87198 20.3505L8.19568 19.4995C8.5802 19.695 8.97937 19.8605 9.38861 19.9942L9.72278 21.5314C9.78244 21.806 10.0257 22.002 10.3067 22.002H13.6933C13.9743 22.002 14.2176 21.806 14.2772 21.5314L14.6114 19.9942C15.0206 19.8605 15.4198 19.695 15.8043 19.4995L17.128 20.3505C17.3645 20.5025 17.675 20.4692 17.8737 20.2704L20.2684 17.8757C20.4671 17.677 20.5005 17.3665 20.3485 17.13L19.4976 15.8063C19.693 15.4218 19.8586 15.0226 19.9922 14.6133L21.5294 14.2792C21.8041 14.2194 22 13.9763 22 13.6952V10.3087C22 10.0276 21.8041 9.78455 21.5294 9.72473ZM15.5857 12.002C15.5857 13.979 13.9771 15.5876 12 15.5876C10.0229 15.5876 8.41434 13.979 8.41434 12.002C8.41434 10.0249 10.0229 8.41629 12 8.41629C13.9771 8.41629 15.5857 10.0249 15.5857 12.002Z" fill="#C3C9D6"/>
</svg>
