<svg width="16" height="16" viewBox="0 0 16 16" fill="none" xmlns="http://www.w3.org/2000/svg">
<path d="M1.50003 11.5C1.59854 11.5001 1.6961 11.4808 1.78712 11.4431C1.87813 11.4054 1.9608 11.3501 2.03037 11.2803L6.25003 7.06066L7.96968 8.78034C8.03933 8.84999 8.12201 8.90524 8.21301 8.94293C8.304 8.98063 8.40153 9.00003 8.50003 9.00003C8.59852 9.00003 8.69605 8.98063 8.78705 8.94293C8.87805 8.90524 8.96073 8.84999 9.03037 8.78034L13.7497 4.06097L13.7495 5.75C13.7495 5.94891 13.8285 6.13968 13.9691 6.28033C14.1098 6.42098 14.3006 6.5 14.4995 6.5C14.6984 6.5 14.8891 6.42098 15.0298 6.28033C15.1704 6.13968 15.2495 5.94891 15.2495 5.75L15.25 2.25C15.25 2.05109 15.171 1.86032 15.0304 1.71967C14.8897 1.57902 14.6989 1.5 14.5 1.5H11C10.8011 1.5 10.6104 1.57902 10.4697 1.71967C10.329 1.86032 10.25 2.05109 10.25 2.25C10.25 2.44891 10.329 2.63968 10.4697 2.78033C10.6104 2.92098 10.8011 3 11 3H12.6894L8.50003 7.18934L6.78037 5.46966C6.71073 5.40001 6.62805 5.34476 6.53705 5.30707C6.44605 5.26937 6.34852 5.24997 6.25003 5.24997C6.15153 5.24997 6.054 5.26937 5.96301 5.30707C5.87201 5.34476 5.78933 5.40001 5.71968 5.46966L0.969684 10.2197C0.864789 10.3245 0.793354 10.4582 0.764413 10.6037C0.735472 10.7492 0.750324 10.9 0.807092 11.037C0.86386 11.1741 0.959994 11.2912 1.08334 11.3736C1.20668 11.456 1.35169 11.5 1.50003 11.5Z" fill="#0D4CA0"/>
<path d="M14.5 13H1.5C1.30109 13 1.11032 13.079 0.96967 13.2197C0.829018 13.3603 0.75 13.5511 0.75 13.75C0.75 13.9489 0.829018 14.1397 0.96967 14.2803C1.11032 14.421 1.30109 14.5 1.5 14.5H14.5C14.6989 14.5 14.8897 14.421 15.0303 14.2803C15.171 14.1397 15.25 13.9489 15.25 13.75C15.25 13.5511 15.171 13.3603 15.0303 13.2197C14.8897 13.079 14.6989 13 14.5 13Z" fill="#0D4CA0"/>
</svg>
