<svg width="48" height="48" viewBox="0 0 48 48" fill="none" xmlns="http://www.w3.org/2000/svg">
<path d="M24 0C10.7659 0 0 10.7659 0 24C0 37.2341 10.7659 48 24 48C37.2341 48 48 37.2341 48 24C48 10.7659 37.2341 0 24 0Z" fill="#34A489"/>
<path d="M36.1646 18.9146L23.1644 31.9143C22.7744 32.3043 22.2625 32.5006 21.7505 32.5006C21.2385 32.5006 20.7266 32.3043 20.3366 31.9143L13.8367 25.4144C13.0544 24.6326 13.0544 23.3684 13.8367 22.5865C14.6185 21.8043 15.8823 21.8043 16.6646 22.5865L21.7505 27.6725L33.3367 16.0867C34.1185 15.3044 35.3823 15.3044 36.1646 16.0867C36.9464 16.8685 36.9464 18.1323 36.1646 18.9146Z" fill="#FAFAFA"/>
</svg>
