<svg width="16" height="16" viewBox="0 0 16 16" fill="none" xmlns="http://www.w3.org/2000/svg">
<path d="M10.606 8.082L16 11.492V4.528L10.606 8.082Z" fill="#6E7581"/>
<path d="M0 4.528V11.492L5.394 8.082L0 4.528Z" fill="#6E7581"/>
<path d="M15 2.5H1.00001C0.501014 2.5 0.105014 2.872 0.030014 3.351L8.00001 8.602L15.97 3.351C15.895 2.872 15.499 2.5 15 2.5Z" fill="#6E7581"/>
<path d="M9.69001 8.686L8.27501 9.618C8.19101 9.673 8.09601 9.7 8.00001 9.7C7.90401 9.7 7.80901 9.673 7.72501 9.618L6.31001 8.685L0.0320129 12.656C0.109013 13.131 0.503013 13.5 1.00001 13.5H15C15.497 13.5 15.891 13.131 15.968 12.656L9.69001 8.686Z" fill="#6E7581"/>
</svg>
