<svg width="32" height="36" viewBox="0 0 32 36"  fill="none" xmlns="http://www.w3.org/2000/svg">
<path d="M26.6733 4.42063C23.8227 1.56994 20.0324 0 16.0011 0C11.9697 0 8.1796 1.56987 5.32877 4.42063C2.47815 7.27126 0.908203 11.0613 0.908203 15.0926C0.908203 19.124 2.47815 22.9142 5.32877 25.7649L15.2554 35.6911C15.4613 35.8971 15.7313 36 16.0011 36C16.2711 36 16.541 35.897 16.7469 35.6911L26.6731 25.7649C29.5238 22.9142 31.0937 19.1241 31.0938 15.0927C31.0937 11.0612 29.5239 7.27118 26.6733 4.42063ZM20.741 19.8324C19.475 21.0985 17.7917 21.7958 16.0012 21.7958C14.2107 21.7958 12.5274 21.0985 11.2614 19.8325C9.99529 18.5664 9.29806 16.8832 9.29806 15.0926C9.29806 13.3022 9.99529 11.6189 11.2614 10.3528C12.5274 9.08673 14.2107 8.38951 16.0012 8.38951C17.7917 8.38951 19.475 9.08673 20.741 10.3528C22.0071 11.6188 22.7044 13.3021 22.7044 15.0926C22.7043 16.8831 22.007 18.5664 20.741 19.8324Z" fill="#0D4CA0"/>
</svg>
