<svg width="24" height="24" viewBox="0 0 24 24" fill="none" xmlns="http://www.w3.org/2000/svg">
<path d="M23.1213 9.87868C24.2929 11.0502 24.2929 12.9498 23.1213 14.1213C21.9497 15.2929 20.0502 15.2929 18.8787 14.1213C17.7071 12.9498 17.7071 11.0502 18.8787 9.87868C20.0502 8.70711 21.9497 8.70711 23.1213 9.87868Z" fill="#C3C9D6"/>
<path d="M14.1213 9.87868C15.2929 11.0502 15.2929 12.9498 14.1213 14.1213C12.9498 15.2929 11.0503 15.2929 9.87871 14.1213C8.70714 12.9498 8.70714 11.0502 9.87871 9.87868C11.0503 8.70711 12.9498 8.70711 14.1213 9.87868Z" fill="#C3C9D6"/>
<path d="M5.12136 9.87868C6.29293 11.0502 6.29293 12.9498 5.12136 14.1213C3.94979 15.2929 2.05029 15.2929 0.878722 14.1213C-0.292846 12.9498 -0.292846 11.0502 0.878722 9.87868C2.05029 8.70711 3.94979 8.70711 5.12136 9.87868Z" fill="#C3C9D6"/>
</svg>
