<svg width="16" height="16" viewBox="0 0 16 16" fill="none" xmlns="http://www.w3.org/2000/svg">
<path d="M4 0C3.45 0 3 0.45 3 1V15C3 15.55 3.45 16 4 16H14C14.55 16 15 15.55 15 15V4L11 0H4Z" fill="#E2E5E7"/>
<path d="M12 4H15L11 0V3C11 3.55 11.45 4 12 4Z" fill="#B0B7BD"/>
<path d="M15 7L12 4H15V7Z" fill="#CAD1D8"/>
<path d="M13 13C13 13.275 12.775 13.5 12.5 13.5H1.5C1.225 13.5 1 13.275 1 13V8C1 7.725 1.225 7.5 1.5 7.5H12.5C12.775 7.5 13 7.725 13 8V13Z" fill="#F15642"/>
<path d="M3.17969 9.47351C3.17969 9.34151 3.28369 9.19751 3.45119 9.19751H4.37469C4.89469 9.19751 5.36269 9.54551 5.36269 10.2125C5.36269 10.8445 4.89469 11.1965 4.37469 11.1965H3.70719V11.7245C3.70719 11.9005 3.59519 12 3.45119 12C3.31919 12 3.17969 11.9005 3.17969 11.7245V9.47351ZM3.70719 9.70101V10.697H4.37469C4.64269 10.697 4.85469 10.4605 4.85469 10.2125C4.85469 9.93301 4.64269 9.70101 4.37469 9.70101H3.70719Z" fill="white"/>
<path d="M6.14563 11.9999C6.01363 11.9999 5.86963 11.9279 5.86963 11.7524V9.4814C5.86963 9.3379 6.01363 9.2334 6.14563 9.2334H7.06113C8.88812 9.2334 8.84812 11.9999 7.09713 11.9999H6.14563ZM6.39763 9.7214V11.5124H7.06113C8.14062 11.5124 8.18862 9.7214 7.06113 9.7214H6.39763Z" fill="white"/>
<path d="M9.49615 9.75341V10.3889H10.5156C10.6596 10.3889 10.8036 10.5329 10.8036 10.6724C10.8036 10.8044 10.6596 10.9124 10.5156 10.9124H9.49615V11.7519C9.49615 11.8919 9.39665 11.9994 9.25665 11.9994C9.08065 11.9994 8.97314 11.8919 8.97314 11.7519V9.48091C8.97314 9.33741 9.08115 9.23291 9.25665 9.23291H10.6601C10.8361 9.23291 10.9401 9.33741 10.9401 9.48091C10.9401 9.60891 10.8361 9.75291 10.6601 9.75291H9.49615V9.75341Z" fill="white"/>
<path d="M12.5 13.5H3V14H12.5C12.775 14 13 13.775 13 13.5V13C13 13.275 12.775 13.5 12.5 13.5Z" fill="#CAD1D8"/>
</svg>
