<svg width="16" height="16" viewBox="0 0 16 16" fill="none" xmlns="http://www.w3.org/2000/svg">
<path d="M8 0C3.58916 0 0 3.58853 0 8C0 12.4115 3.58916 16 8 16C12.4115 16 16 12.4115 16 8C16 3.58853 12.4108 0 8 0ZM8 14.7607C4.27203 14.7607 1.23934 11.728 1.23934 8C1.23934 4.27203 4.27203 1.23934 8 1.23934C11.728 1.23934 14.7607 4.27203 14.7607 8C14.7607 11.728 11.728 14.7607 8 14.7607Z" fill="#6E7581"/>
<path d="M11.0977 7.32422H4.90094C4.55888 7.32422 4.28125 7.60185 4.28125 7.94391C4.28125 8.28598 4.55888 8.56361 4.90094 8.56361H11.0977C11.4398 8.56361 11.7174 8.28598 11.7174 7.94391C11.7174 7.60185 11.4398 7.32422 11.0977 7.32422Z" fill="#6E7581"/>
</svg>
