<svg width="12" height="12" viewBox="0 0 12 12" fill="none" xmlns="http://www.w3.org/2000/svg">
<path d="M5.99976 11.8004C2.69136 11.8004 -9.53674e-07 9.10875 -9.53674e-07 5.80039C-9.53674e-07 4.25148 0.600793 2.7701 1.66152 1.65841C1.66152 1.65841 1.507 1.31089 1.31569 0.882186C1.12484 0.453486 1.39957 0.150971 1.92966 0.206216L5.03427 0.531449C5.56439 0.586812 5.74049 0.981377 5.42746 1.41274L3.59349 3.93931C3.28015 4.3706 2.89375 4.42232 2.72997 4.05455L2.43334 3.38894C1.95575 4.09567 1.68879 4.93208 1.68879 5.80039C1.68879 8.1779 3.62269 10.1115 5.99972 10.1115C8.37712 10.1115 10.3111 8.17766 10.3111 5.80039C10.3111 5.05152 10.1165 4.31418 9.74781 3.66838C9.51667 3.26327 9.65757 2.74762 10.0627 2.51651C10.4679 2.28517 10.9833 2.42627 11.2147 2.83162C11.7284 3.73171 12 4.75826 12 5.80035C12 9.10875 9.30828 11.8004 5.99976 11.8004Z" fill="#0D4CA0"/>
</svg>
