<svg width="16" height="16" viewBox="0 0 16 16" fill="none" xmlns="http://www.w3.org/2000/svg">
<g clip-path="url(#clip0)">
<path d="M15.4974 6.78333L9.13135 0.417236C8.85461 0.140381 8.57178 0 8.29089 0C7.90112 0 7.44592 0.292114 7.44592 1.11511V5.04028C5.50281 5.17261 3.69495 5.99829 2.3136 7.39404C0.821655 8.90149 0 10.8998 0 13.0208C0 13.9343 0.15332 14.8315 0.455933 15.6875C0.522095 15.8748 0.699219 16 0.897827 16C1.09656 16 1.27356 15.8748 1.33984 15.6875C2.27051 13.0544 4.68787 11.2191 7.44592 11.0012V14.8848C7.44592 15.7078 7.901 15.9999 8.29089 15.9999C8.57178 15.9999 8.85449 15.8596 9.13123 15.5829L15.4976 9.21655C15.8215 8.89246 16 8.46045 16 7.99988C15.9999 7.53943 15.8214 7.1073 15.4974 6.78333ZM14.8346 8.55371L8.46838 14.92C8.43835 14.95 8.41162 14.9739 8.38843 14.9928C8.38525 14.963 8.3833 14.9272 8.3833 14.8849V10.5111C8.3833 10.386 8.33325 10.2659 8.24414 10.1779C8.15637 10.0911 8.03796 10.0424 7.91455 10.0424C7.91284 10.0424 7.91113 10.0425 7.90942 10.0425C6.23999 10.061 4.64575 10.5887 3.29907 11.5684C2.35571 12.2546 1.58411 13.1235 1.02307 14.123C0.966187 13.7601 0.9375 13.3921 0.9375 13.0208C0.9375 9.16992 4.0697 6.0022 7.9198 5.95935C8.17664 5.95654 8.38342 5.74756 8.38342 5.4906V1.11511C8.38342 1.07275 8.38538 1.03711 8.38843 1.0072C8.41162 1.02612 8.43835 1.05005 8.46838 1.08008L14.8346 7.44629C14.9816 7.59326 15.0625 7.78979 15.0625 8C15.0624 8.21008 14.9814 8.40674 14.8346 8.55371Z" fill="#0D4CA0"/>
</g>
<defs>
<clipPath id="clip0">
<rect width="16" height="16" fill="white"/>
</clipPath>
</defs>
</svg>
