<svg width="20" height="20" viewBox="0 0 20 20" fill="none" xmlns="http://www.w3.org/2000/svg">
<g clip-path="url(#clip0)">
<path d="M11.3843 4.10001H13.5921L10.2129 0.545166V2.92401C10.2129 3.56839 10.7355 4.10001 11.3843 4.10001Z" fill="white"/>
<path d="M7.7214 13.0659H3.806C3.60779 13.0659 3.44559 12.9039 3.44559 12.7055C3.44559 12.5073 3.60779 12.3451 3.806 12.3451H7.9602C8.18985 11.7595 8.49624 11.2637 8.87481 10.7681H3.806C3.60779 10.7681 3.44559 10.6061 3.44559 10.4077C3.44559 10.2095 3.60779 10.0473 3.806 10.0473H9.55963C10.6409 9.1011 12.0737 8.49747 13.6371 8.49747C13.7857 8.49747 13.9075 8.51089 14.0877 8.52448V4.82086H11.3843C10.339 4.82086 9.49203 3.96484 9.49203 2.92404V0H2.58057C1.68838 0 0.976562 0.729828 0.976562 1.62643V15.3773C0.976562 16.274 1.68838 16.9858 2.58057 16.9858H8.00964C7.69882 16.265 7.52761 15.4539 7.52761 14.6069C7.52304 14.0753 7.59521 13.5616 7.7214 13.0659ZM3.806 7.79449H8.3702C8.56842 7.79449 8.73062 7.9567 8.73062 8.15506C8.73062 8.35327 8.56842 8.51547 8.3702 8.51547H3.806C3.60779 8.51547 3.44559 8.35327 3.44559 8.15506C3.44559 7.9567 3.60779 7.79449 3.806 7.79449Z" fill="white"/>
<path d="M13.6321 9.23193C10.6631 9.23193 8.24805 11.6468 8.24805 14.616C8.24805 17.5851 10.6631 20.0001 13.6321 20.0001C16.6013 20.0001 19.0163 17.5851 19.0163 14.616C19.0163 11.6468 16.6013 9.23193 13.6321 9.23193ZM16.5113 14.697C16.4437 14.7602 16.3535 14.7918 16.2679 14.7918C16.1733 14.7918 16.0787 14.7512 16.0065 14.679L13.9971 12.5164V17.6617C13.9971 17.86 13.8349 18.0222 13.6367 18.0222C13.4385 18.0222 13.2763 17.86 13.2763 17.6617V12.512L11.2578 14.6746C11.1227 14.8188 10.8883 14.8278 10.7441 14.6926C10.6 14.5574 10.5909 14.3276 10.7261 14.1834L13.3663 11.3494C13.4339 11.2774 13.5285 11.2368 13.6321 11.2368C13.7359 11.2368 13.8259 11.2774 13.8981 11.3494L16.5383 14.1834C16.6645 14.3322 16.6553 14.562 16.5113 14.697Z" fill="white"/>
</g>
<defs>
<clipPath id="clip0">
<rect width="20" height="20" fill="white"/>
</clipPath>
</defs>
</svg>
