<svg width="32" height="32" viewBox="0 0 32 32" fill="none" xmlns="http://www.w3.org/2000/svg">
<path d="M31.4482 26.4827H0.551749C0.247062 26.4827 0 26.2357 0 25.931V6.06896C0 5.76427 0.247062 5.51721 0.551749 5.51721H31.4483C31.7529 5.51721 32 5.76427 32 6.06896V25.931C31.9999 26.2357 31.7529 26.4827 31.4482 26.4827Z" fill="#F5F5F5"/>
<path d="M31.9999 7.13002H0V6.06896C0 5.76427 0.247062 5.51721 0.551749 5.51721H31.4483C31.7529 5.51721 32 5.76427 32 6.06896L31.9999 7.13002Z" fill="#FF4B55"/>
<path d="M31.9999 11.9681H0V13.5809H31.9999V11.9681Z" fill="#FF4B55"/>
<path d="M31.9999 8.74249H0V10.3552H31.9999V8.74249Z" fill="#FF4B55"/>
<path d="M31.9999 16.8064H0.551749C0.247062 16.8064 0 16.5593 0 16.2546V15.1935H31.9999V16.8064Z" fill="#FF4B55"/>
<path d="M31.9999 21.645H0V23.2578H31.9999V21.645Z" fill="#FF4B55"/>
<path d="M31.4482 26.4827H0.551749C0.247062 26.4827 0 26.2357 0 25.931V24.87H31.9999V25.9311C31.9999 26.2357 31.7529 26.4827 31.4482 26.4827Z" fill="#FF4B55"/>
<path d="M31.9999 18.4194H0V20.0321H31.9999V18.4194Z" fill="#FF4B55"/>
<path d="M14.3448 5.51727H0.551749C0.247062 5.51727 0 5.76427 0 6.06896V16.2546C0 16.5592 0.247062 16.8063 0.551749 16.8063H14.3448C14.6495 16.8063 14.8966 16.5592 14.8966 16.2546V6.06896C14.8965 5.76427 14.6495 5.51727 14.3448 5.51727Z" fill="#41479B"/>
<path d="M1.54931 6.78374L1.67144 7.14999L2.0575 7.15293C2.1075 7.15336 2.12819 7.21711 2.088 7.2468L1.77744 7.47618L1.89394 7.84424C1.90906 7.89186 1.85475 7.93136 1.81406 7.90224L1.5 7.6778L1.18594 7.9023C1.14525 7.93136 1.09106 7.89192 1.10606 7.8443L1.22256 7.47624L0.912003 7.24686C0.871815 7.21711 0.892503 7.15343 0.942503 7.15299L1.32856 7.15005L1.45069 6.7838C1.46644 6.7363 1.53344 6.7363 1.54931 6.78374Z" fill="#F5F5F5"/>
<path d="M1.54931 8.69953L1.67144 9.06578L2.0575 9.06871C2.1075 9.06915 2.12819 9.1329 2.088 9.16259L1.77744 9.39196L1.89394 9.76003C1.90906 9.80765 1.85475 9.84715 1.81406 9.81803L1.5 9.59359L1.18594 9.81809C1.14525 9.84715 1.09106 9.80772 1.10606 9.76009L1.22256 9.39203L0.912003 9.16265C0.871815 9.1329 0.892503 9.06921 0.942503 9.06878L1.32856 9.06584L1.45069 8.69959C1.46644 8.65215 1.53344 8.65215 1.54931 8.69953Z" fill="#F5F5F5"/>
<path d="M1.54931 10.6154L1.67144 10.9816L2.0575 10.9845C2.1075 10.985 2.12819 11.0487 2.088 11.0784L1.77744 11.3078L1.89394 11.6758C1.90906 11.7235 1.85475 11.763 1.81406 11.7338L1.5 11.5094L1.18594 11.7339C1.14525 11.763 1.09106 11.7235 1.10606 11.6759L1.22256 11.3079L0.912003 11.0785C0.871815 11.0487 0.892503 10.985 0.942503 10.9846L1.32856 10.9817L1.45069 10.6154C1.46644 10.568 1.53344 10.568 1.54931 10.6154Z" fill="#F5F5F5"/>
<path d="M1.54931 12.5313L1.67144 12.8975L2.0575 12.9005C2.1075 12.9009 2.12819 12.9647 2.088 12.9944L1.77744 13.2237L1.89394 13.5918C1.90906 13.6394 1.85475 13.6789 1.81406 13.6498L1.5 13.4254L1.18594 13.6499C1.14525 13.6789 1.09106 13.6395 1.10606 13.5919L1.22256 13.2238L0.912003 12.9944C0.871815 12.9647 0.892503 12.901 0.942503 12.9005L1.32856 12.8976L1.45069 12.5314C1.46644 12.4839 1.53344 12.4839 1.54931 12.5313Z" fill="#F5F5F5"/>
<path d="M1.54931 14.4472L1.67144 14.8134L2.0575 14.8164C2.1075 14.8168 2.12819 14.8806 2.088 14.9102L1.77744 15.1396L1.89394 15.5077C1.90906 15.5553 1.85475 15.5948 1.81406 15.5657L1.5 15.3412L1.18594 15.5657C1.14525 15.5948 1.09106 15.5554 1.10606 15.5077L1.22256 15.1397L0.912003 14.9103C0.871815 14.8806 0.892503 14.8169 0.942503 14.8164L1.32856 14.8135L1.45069 14.4472C1.46644 14.3997 1.53344 14.3997 1.54931 14.4472Z" fill="#F5F5F5"/>
<path d="M3.03637 7.72297L3.1585 8.08922L3.54456 8.09216C3.59456 8.09259 3.61525 8.15634 3.57506 8.18603L3.2645 8.41541L3.381 8.78347C3.39612 8.83109 3.34181 8.87059 3.30112 8.84147L2.98706 8.61697L2.673 8.84147C2.63231 8.87053 2.57813 8.83109 2.59313 8.78347L2.70962 8.41541L2.39906 8.18603C2.35888 8.15628 2.37956 8.09259 2.42956 8.09216L2.81562 8.08922L2.93775 7.72297C2.95344 7.6756 3.02056 7.6756 3.03637 7.72297Z" fill="#F5F5F5"/>
<path d="M3.03637 9.63885L3.1585 10.0051L3.54456 10.008C3.59456 10.0085 3.61525 10.0722 3.57506 10.1019L3.2645 10.3313L3.381 10.6993C3.39612 10.747 3.34181 10.7865 3.30112 10.7573L2.98706 10.5328L2.673 10.7573C2.63231 10.7864 2.57813 10.747 2.59313 10.6993L2.70962 10.3313L2.39906 10.1019C2.35888 10.0722 2.37956 10.0085 2.42956 10.008L2.81562 10.0051L2.93775 9.63885C2.95344 9.59141 3.02056 9.59141 3.03637 9.63885Z" fill="#F5F5F5"/>
<path d="M3.03637 11.5547L3.1585 11.921L3.54456 11.9239C3.59456 11.9244 3.61525 11.9881 3.57506 12.0178L3.2645 12.2472L3.381 12.6152C3.39612 12.6629 3.34181 12.7024 3.30112 12.6732L2.98706 12.4487L2.673 12.6732C2.63231 12.7023 2.57813 12.6629 2.59313 12.6152L2.70962 12.2472L2.39906 12.0178C2.35888 11.9881 2.37956 11.9244 2.42956 11.9239L2.81562 11.921L2.93775 11.5547C2.95344 11.5073 3.02056 11.5073 3.03637 11.5547Z" fill="#F5F5F5"/>
<path d="M3.03637 13.4706L3.1585 13.8368L3.54456 13.8398C3.59456 13.8402 3.61525 13.904 3.57506 13.9337L3.2645 14.163L3.381 14.5311C3.39612 14.5787 3.34181 14.6182 3.30112 14.5891L2.98706 14.3646L2.673 14.5891C2.63231 14.6182 2.57813 14.5787 2.59313 14.5311L2.70962 14.163L2.39906 13.9337C2.35888 13.9039 2.37956 13.8402 2.42956 13.8398L2.81562 13.8368L2.93775 13.4706C2.95344 13.4232 3.02056 13.4232 3.03637 13.4706Z" fill="#F5F5F5"/>
<path d="M4.52343 6.78362L4.64556 7.14987L5.03162 7.15281C5.08162 7.15325 5.10231 7.217 5.06212 7.24669L4.75156 7.47606L4.86806 7.84412C4.88318 7.89175 4.82887 7.93125 4.78818 7.90212L4.47412 7.67762L4.16006 7.90212C4.11937 7.93118 4.06519 7.89175 4.08019 7.84412L4.19669 7.47606L3.88612 7.24669C3.84594 7.21694 3.86662 7.15325 3.91662 7.15281L4.30269 7.14987L4.42481 6.78362C4.44056 6.73619 4.50762 6.73619 4.52343 6.78362Z" fill="#F5F5F5"/>
<path d="M4.52343 8.69953L4.64556 9.06578L5.03162 9.06871C5.08162 9.06915 5.10231 9.1329 5.06212 9.16259L4.75156 9.39196L4.86806 9.76002C4.88318 9.80764 4.82887 9.84714 4.78818 9.81802L4.47412 9.59352L4.16006 9.81802C4.11937 9.84708 4.06519 9.80764 4.08019 9.76002L4.19669 9.39196L3.88612 9.16259C3.84594 9.13284 3.86662 9.06915 3.91662 9.06871L4.30269 9.06578L4.42481 8.69953C4.44056 8.65216 4.50762 8.65216 4.52343 8.69953Z" fill="#F5F5F5"/>
<path d="M4.52343 10.6154L4.64556 10.9816L5.03162 10.9846C5.08162 10.985 5.10231 11.0487 5.06212 11.0784L4.75156 11.3078L4.86806 11.6759C4.88318 11.7235 4.82887 11.763 4.78818 11.7339L4.47412 11.5094L4.16006 11.7339C4.11937 11.7629 4.06519 11.7235 4.08019 11.6759L4.19669 11.3078L3.88612 11.0784C3.84594 11.0487 3.86662 10.985 3.91662 10.9846L4.30269 10.9816L4.42481 10.6154C4.44056 10.568 4.50762 10.568 4.52343 10.6154Z" fill="#F5F5F5"/>
<path d="M4.52343 12.5313L4.64556 12.8976L5.03162 12.9005C5.08162 12.9009 5.10231 12.9647 5.06212 12.9944L4.75156 13.2237L4.86806 13.5918C4.88318 13.6394 4.82887 13.6789 4.78818 13.6498L4.47412 13.4253L4.16006 13.6498C4.11937 13.6789 4.06519 13.6394 4.08019 13.5918L4.19669 13.2237L3.88612 12.9944C3.84594 12.9646 3.86662 12.9009 3.91662 12.9005L4.30269 12.8976L4.42481 12.5313C4.44056 12.4839 4.50762 12.4839 4.52343 12.5313Z" fill="#F5F5F5"/>
<path d="M4.52343 14.4472L4.64556 14.8134L5.03162 14.8164C5.08162 14.8168 5.10231 14.8806 5.06212 14.9102L4.75156 15.1396L4.86806 15.5077C4.88318 15.5553 4.82887 15.5948 4.78818 15.5657L4.47412 15.3412L4.16006 15.5657C4.11937 15.5947 4.06519 15.5553 4.08019 15.5077L4.19669 15.1396L3.88612 14.9102C3.84594 14.8805 3.86662 14.8168 3.91662 14.8164L4.30269 14.8134L4.42481 14.4472C4.44056 14.3997 4.50762 14.3997 4.52343 14.4472Z" fill="#F5F5F5"/>
<path d="M6.01056 7.72297L6.13268 8.08922L6.51875 8.09216C6.56875 8.09259 6.58943 8.15634 6.54925 8.18603L6.23868 8.41541L6.35518 8.78347C6.37031 8.83109 6.316 8.87059 6.27531 8.84147L5.96125 8.61697L5.64718 8.84147C5.6065 8.87053 5.55231 8.83109 5.56731 8.78347L5.68381 8.41541L5.37325 8.18603C5.33306 8.15628 5.35375 8.09259 5.40375 8.09216L5.78981 8.08922L5.91193 7.72297C5.92762 7.6756 5.99475 7.6756 6.01056 7.72297Z" fill="#F5F5F5"/>
<path d="M6.01056 9.63885L6.13268 10.0051L6.51875 10.008C6.56875 10.0085 6.58943 10.0722 6.54925 10.1019L6.23868 10.3313L6.35518 10.6993C6.37031 10.747 6.316 10.7865 6.27531 10.7573L5.96125 10.5328L5.64718 10.7573C5.6065 10.7864 5.55231 10.747 5.56731 10.6993L5.68381 10.3313L5.37325 10.1019C5.33306 10.0722 5.35375 10.0085 5.40375 10.008L5.78981 10.0051L5.91193 9.63885C5.92762 9.59141 5.99475 9.59141 6.01056 9.63885Z" fill="#F5F5F5"/>
<path d="M6.01056 11.5547L6.13268 11.921L6.51875 11.9239C6.56875 11.9244 6.58943 11.9881 6.54925 12.0178L6.23868 12.2472L6.35518 12.6152C6.37031 12.6629 6.316 12.7024 6.27531 12.6732L5.96125 12.4487L5.64718 12.6732C5.6065 12.7023 5.55231 12.6629 5.56731 12.6152L5.68381 12.2472L5.37325 12.0178C5.33306 11.9881 5.35375 11.9244 5.40375 11.9239L5.78981 11.921L5.91193 11.5547C5.92762 11.5073 5.99475 11.5073 6.01056 11.5547Z" fill="#F5F5F5"/>
<path d="M6.01056 13.4706L6.13268 13.8368L6.51875 13.8398C6.56875 13.8402 6.58943 13.904 6.54925 13.9337L6.23868 14.163L6.35518 14.5311C6.37031 14.5787 6.316 14.6182 6.27531 14.5891L5.96125 14.3646L5.64718 14.5891C5.6065 14.6182 5.55231 14.5787 5.56731 14.5311L5.68381 14.163L5.37325 13.9337C5.33306 13.9039 5.35375 13.8402 5.40375 13.8398L5.78981 13.8368L5.91193 13.4706C5.92762 13.4232 5.99475 13.4232 6.01056 13.4706Z" fill="#F5F5F5"/>
<path d="M7.49762 6.78362L7.61975 7.14987L8.00581 7.15281C8.05581 7.15325 8.0765 7.217 8.03631 7.24669L7.72575 7.47606L7.84225 7.84412C7.85737 7.89175 7.80306 7.93125 7.76237 7.90212L7.44825 7.67762L7.13418 7.90212C7.0935 7.93118 7.03931 7.89175 7.05431 7.84412L7.17081 7.47606L6.86025 7.24669C6.82006 7.21694 6.84074 7.15325 6.89075 7.15281L7.27681 7.14987L7.39894 6.78362C7.41475 6.73619 7.48181 6.73619 7.49762 6.78362Z" fill="#F5F5F5"/>
<path d="M7.49762 8.69953L7.61975 9.06578L8.00581 9.06871C8.05581 9.06915 8.0765 9.1329 8.03631 9.16259L7.72575 9.39196L7.84225 9.76002C7.85737 9.80764 7.80306 9.84714 7.76237 9.81802L7.44825 9.59352L7.13418 9.81802C7.0935 9.84708 7.03931 9.80764 7.05431 9.76002L7.17081 9.39196L6.86025 9.16259C6.82006 9.13284 6.84074 9.06915 6.89075 9.06871L7.27681 9.06578L7.39894 8.69953C7.41475 8.65216 7.48181 8.65216 7.49762 8.69953Z" fill="#F5F5F5"/>
<path d="M7.49762 10.6154L7.61975 10.9816L8.00581 10.9846C8.05581 10.985 8.0765 11.0487 8.03631 11.0784L7.72575 11.3078L7.84225 11.6759C7.85737 11.7235 7.80306 11.763 7.76237 11.7339L7.44825 11.5094L7.13418 11.7339C7.0935 11.7629 7.03931 11.7235 7.05431 11.6759L7.17081 11.3078L6.86025 11.0784C6.82006 11.0487 6.84074 10.985 6.89075 10.9846L7.27681 10.9816L7.39894 10.6154C7.41475 10.568 7.48181 10.568 7.49762 10.6154Z" fill="#F5F5F5"/>
<path d="M7.49762 12.5313L7.61975 12.8976L8.00581 12.9005C8.05581 12.9009 8.0765 12.9647 8.03631 12.9944L7.72575 13.2237L7.84225 13.5918C7.85737 13.6394 7.80306 13.6789 7.76237 13.6498L7.44825 13.4253L7.13418 13.6498C7.0935 13.6789 7.03931 13.6394 7.05431 13.5918L7.17081 13.2237L6.86025 12.9944C6.82006 12.9646 6.84074 12.9009 6.89075 12.9005L7.27681 12.8976L7.39894 12.5313C7.41475 12.4839 7.48181 12.4839 7.49762 12.5313Z" fill="#F5F5F5"/>
<path d="M7.49762 14.4472L7.61975 14.8134L8.00581 14.8164C8.05581 14.8168 8.0765 14.8806 8.03631 14.9102L7.72575 15.1396L7.84225 15.5077C7.85737 15.5553 7.80306 15.5948 7.76237 15.5657L7.44825 15.3412L7.13418 15.5657C7.0935 15.5947 7.03931 15.5553 7.05431 15.5077L7.17081 15.1396L6.86025 14.9102C6.82006 14.8805 6.84074 14.8168 6.89075 14.8164L7.27681 14.8134L7.39894 14.4472C7.41475 14.3997 7.48181 14.3997 7.49762 14.4472Z" fill="#F5F5F5"/>
<path d="M8.98468 7.72297L9.1068 8.08922L9.49287 8.09216C9.54287 8.09259 9.56355 8.15634 9.52336 8.18603L9.2128 8.41541L9.3293 8.78347C9.34443 8.83109 9.29012 8.87059 9.24943 8.84147L8.93537 8.61697L8.6213 8.84147C8.58062 8.87053 8.52643 8.83109 8.54143 8.78347L8.65793 8.41541L8.34737 8.18603C8.30718 8.15628 8.32787 8.09259 8.37787 8.09216L8.76393 8.08922L8.88605 7.72297C8.90187 7.6756 8.96887 7.6756 8.98468 7.72297Z" fill="#F5F5F5"/>
<path d="M8.98468 9.63885L9.1068 10.0051L9.49287 10.008C9.54287 10.0085 9.56355 10.0722 9.52336 10.1019L9.2128 10.3313L9.3293 10.6993C9.34443 10.747 9.29012 10.7865 9.24943 10.7573L8.93537 10.5328L8.6213 10.7573C8.58062 10.7864 8.52643 10.747 8.54143 10.6993L8.65793 10.3313L8.34737 10.1019C8.30718 10.0722 8.32787 10.0085 8.37787 10.008L8.76393 10.0051L8.88605 9.63885C8.90187 9.59141 8.96887 9.59141 8.98468 9.63885Z" fill="#F5F5F5"/>
<path d="M8.98468 11.5547L9.1068 11.921L9.49287 11.9239C9.54287 11.9244 9.56355 11.9881 9.52336 12.0178L9.2128 12.2472L9.3293 12.6152C9.34443 12.6629 9.29012 12.7024 9.24943 12.6732L8.93537 12.4487L8.6213 12.6732C8.58062 12.7023 8.52643 12.6629 8.54143 12.6152L8.65793 12.2472L8.34737 12.0178C8.30718 11.9881 8.32787 11.9244 8.37787 11.9239L8.76393 11.921L8.88605 11.5547C8.90187 11.5073 8.96887 11.5073 8.98468 11.5547Z" fill="#F5F5F5"/>
<path d="M8.98468 13.4706L9.1068 13.8368L9.49287 13.8398C9.54287 13.8402 9.56355 13.904 9.52336 13.9337L9.2128 14.163L9.3293 14.5311C9.34443 14.5787 9.29012 14.6182 9.24943 14.5891L8.93537 14.3646L8.6213 14.5891C8.58062 14.6182 8.52643 14.5787 8.54143 14.5311L8.65793 14.163L8.34737 13.9337C8.30718 13.9039 8.32787 13.8402 8.37787 13.8398L8.76393 13.8368L8.88605 13.4706C8.90187 13.4232 8.96887 13.4232 8.98468 13.4706Z" fill="#F5F5F5"/>
<path d="M10.4718 6.78362L10.5939 7.14987L10.98 7.15281C11.03 7.15325 11.0507 7.217 11.0105 7.24669L10.6999 7.47606L10.8164 7.84412C10.8315 7.89175 10.7772 7.93125 10.7365 7.90212L10.4225 7.67762L10.1084 7.90212C10.0677 7.93118 10.0136 7.89175 10.0286 7.84412L10.145 7.47606L9.83449 7.24669C9.7943 7.21694 9.81499 7.15325 9.86499 7.15281L10.251 7.14987L10.3732 6.78362C10.3889 6.73619 10.456 6.73619 10.4718 6.78362Z" fill="#F5F5F5"/>
<path d="M10.4718 8.69953L10.5939 9.06578L10.98 9.06871C11.03 9.06915 11.0507 9.1329 11.0105 9.16259L10.6999 9.39196L10.8164 9.76002C10.8315 9.80764 10.7772 9.84714 10.7365 9.81802L10.4225 9.59352L10.1084 9.81802C10.0677 9.84708 10.0136 9.80764 10.0286 9.76002L10.145 9.39196L9.83449 9.16259C9.7943 9.13284 9.81499 9.06915 9.86499 9.06871L10.251 9.06578L10.3732 8.69953C10.3889 8.65216 10.456 8.65216 10.4718 8.69953Z" fill="#F5F5F5"/>
<path d="M10.4718 10.6154L10.5939 10.9816L10.98 10.9846C11.03 10.985 11.0507 11.0487 11.0105 11.0784L10.6999 11.3078L10.8164 11.6759C10.8315 11.7235 10.7772 11.763 10.7365 11.7339L10.4225 11.5094L10.1084 11.7339C10.0677 11.7629 10.0136 11.7235 10.0286 11.6759L10.145 11.3078L9.83449 11.0784C9.7943 11.0487 9.81499 10.985 9.86499 10.9846L10.251 10.9816L10.3732 10.6154C10.3889 10.568 10.456 10.568 10.4718 10.6154Z" fill="#F5F5F5"/>
<path d="M10.4718 12.5313L10.5939 12.8976L10.98 12.9005C11.03 12.9009 11.0507 12.9647 11.0105 12.9944L10.6999 13.2237L10.8164 13.5918C10.8315 13.6394 10.7772 13.6789 10.7365 13.6498L10.4225 13.4253L10.1084 13.6498C10.0677 13.6789 10.0136 13.6394 10.0286 13.5918L10.145 13.2237L9.83449 12.9944C9.7943 12.9646 9.81499 12.9009 9.86499 12.9005L10.251 12.8976L10.3732 12.5313C10.3889 12.4839 10.456 12.4839 10.4718 12.5313Z" fill="#F5F5F5"/>
<path d="M10.4718 14.4472L10.5939 14.8134L10.98 14.8164C11.03 14.8168 11.0507 14.8806 11.0105 14.9102L10.6999 15.1396L10.8164 15.5077C10.8315 15.5553 10.7772 15.5948 10.7365 15.5657L10.4225 15.3412L10.1084 15.5657C10.0677 15.5947 10.0136 15.5553 10.0286 15.5077L10.145 15.1396L9.83449 14.9102C9.7943 14.8805 9.81499 14.8168 9.86499 14.8164L10.251 14.8134L10.3732 14.4472C10.3889 14.3997 10.456 14.3997 10.4718 14.4472Z" fill="#F5F5F5"/>
<path d="M11.9589 7.72297L12.081 8.08922L12.467 8.09216C12.517 8.09259 12.5377 8.15634 12.4975 8.18603L12.187 8.41541L12.3035 8.78347C12.3186 8.83109 12.2643 8.87059 12.2236 8.84147L11.9095 8.61697L11.5955 8.84147C11.5548 8.87053 11.5006 8.83109 11.5156 8.78347L11.6321 8.41541L11.3215 8.18603C11.2814 8.15628 11.302 8.09259 11.352 8.09216L11.7381 8.08922L11.8602 7.72297C11.876 7.6756 11.9431 7.6756 11.9589 7.72297Z" fill="#F5F5F5"/>
<path d="M11.9589 9.63885L12.081 10.0051L12.467 10.008C12.517 10.0085 12.5377 10.0722 12.4975 10.1019L12.187 10.3313L12.3035 10.6993C12.3186 10.747 12.2643 10.7865 12.2236 10.7573L11.9095 10.5328L11.5955 10.7573C11.5548 10.7864 11.5006 10.747 11.5156 10.6993L11.6321 10.3313L11.3215 10.1019C11.2814 10.0722 11.302 10.0085 11.352 10.008L11.7381 10.0051L11.8602 9.63885C11.876 9.59141 11.9431 9.59141 11.9589 9.63885Z" fill="#F5F5F5"/>
<path d="M11.9589 11.5547L12.081 11.921L12.467 11.9239C12.517 11.9244 12.5377 11.9881 12.4975 12.0178L12.187 12.2472L12.3035 12.6152C12.3186 12.6629 12.2643 12.7024 12.2236 12.6732L11.9095 12.4487L11.5955 12.6732C11.5548 12.7023 11.5006 12.6629 11.5156 12.6152L11.6321 12.2472L11.3215 12.0178C11.2814 11.9881 11.302 11.9244 11.352 11.9239L11.7381 11.921L11.8602 11.5547C11.876 11.5073 11.9431 11.5073 11.9589 11.5547Z" fill="#F5F5F5"/>
<path d="M11.9589 13.4706L12.081 13.8368L12.467 13.8398C12.517 13.8402 12.5377 13.904 12.4975 13.9337L12.187 14.163L12.3035 14.5311C12.3186 14.5787 12.2643 14.6182 12.2236 14.5891L11.9095 14.3646L11.5955 14.5891C11.5548 14.6182 11.5006 14.5787 11.5156 14.5311L11.6321 14.163L11.3215 13.9337C11.2814 13.9039 11.302 13.8402 11.352 13.8398L11.7381 13.8368L11.8602 13.4706C11.876 13.4232 11.9431 13.4232 11.9589 13.4706Z" fill="#F5F5F5"/>
<path d="M13.446 6.78362L13.5681 7.14987L13.9542 7.15281C14.0042 7.15325 14.0249 7.217 13.9847 7.24669L13.6741 7.47606L13.7906 7.84412C13.8057 7.89175 13.7514 7.93125 13.7107 7.90212L13.3967 7.67762L13.0826 7.90212C13.0419 7.93118 12.9877 7.89175 13.0027 7.84412L13.1192 7.47606L12.8087 7.24669C12.7685 7.21694 12.7892 7.15325 12.8392 7.15281L13.2252 7.14987L13.3474 6.78362C13.3631 6.73619 13.4301 6.73619 13.446 6.78362Z" fill="#F5F5F5"/>
<path d="M13.446 8.69953L13.5681 9.06578L13.9542 9.06871C14.0042 9.06915 14.0249 9.1329 13.9847 9.16259L13.6741 9.39196L13.7906 9.76002C13.8057 9.80764 13.7514 9.84714 13.7107 9.81802L13.3967 9.59352L13.0826 9.81802C13.0419 9.84708 12.9877 9.80764 13.0027 9.76002L13.1192 9.39196L12.8087 9.16259C12.7685 9.13284 12.7892 9.06915 12.8392 9.06871L13.2252 9.06578L13.3474 8.69953C13.3631 8.65216 13.4301 8.65216 13.446 8.69953Z" fill="#F5F5F5"/>
<path d="M13.446 10.6154L13.5681 10.9816L13.9542 10.9846C14.0042 10.985 14.0249 11.0487 13.9847 11.0784L13.6741 11.3078L13.7906 11.6759C13.8057 11.7235 13.7514 11.763 13.7107 11.7339L13.3967 11.5094L13.0826 11.7339C13.0419 11.7629 12.9877 11.7235 13.0027 11.6759L13.1192 11.3078L12.8087 11.0784C12.7685 11.0487 12.7892 10.985 12.8392 10.9846L13.2252 10.9816L13.3474 10.6154C13.3631 10.568 13.4301 10.568 13.446 10.6154Z" fill="#F5F5F5"/>
<path d="M13.446 12.5313L13.5681 12.8976L13.9542 12.9005C14.0042 12.9009 14.0249 12.9647 13.9847 12.9944L13.6741 13.2237L13.7906 13.5918C13.8057 13.6394 13.7514 13.6789 13.7107 13.6498L13.3967 13.4253L13.0826 13.6498C13.0419 13.6789 12.9877 13.6394 13.0027 13.5918L13.1192 13.2237L12.8087 12.9944C12.7685 12.9646 12.7892 12.9009 12.8392 12.9005L13.2252 12.8976L13.3474 12.5313C13.3631 12.4839 13.4301 12.4839 13.446 12.5313Z" fill="#F5F5F5"/>
<path d="M13.446 14.4472L13.5681 14.8134L13.9542 14.8164C14.0042 14.8168 14.0249 14.8806 13.9847 14.9102L13.6741 15.1396L13.7906 15.5077C13.8057 15.5553 13.7514 15.5948 13.7107 15.5657L13.3967 15.3412L13.0826 15.5657C13.0419 15.5947 12.9877 15.5553 13.0027 15.5077L13.1192 15.1396L12.8087 14.9102C12.7685 14.8805 12.7892 14.8168 12.8392 14.8164L13.2252 14.8134L13.3474 14.4472C13.3631 14.3997 13.4301 14.3997 13.446 14.4472Z" fill="#F5F5F5"/>
</svg>
