<svg width="24" height="25" viewBox="0 0 24 25" fill="none" xmlns="http://www.w3.org/2000/svg">
<path d="M5.51562 9.11133C4.22301 9.11133 3.17188 8.0602 3.17188 6.76758C3.17188 5.47496 4.22301 4.42383 5.51562 4.42383C6.80824 4.42383 7.85938 5.47496 7.85938 6.76758C7.85938 8.0602 6.80824 9.11133 5.51562 9.11133Z" fill="#C3C9D6"/>
<path d="M18.4844 9.11133C17.1918 9.11133 16.1406 8.0602 16.1406 6.76758C16.1406 5.47496 17.1918 4.42383 18.4844 4.42383C19.777 4.42383 20.8281 5.47496 20.8281 6.76758C20.8281 8.0602 19.777 9.11133 18.4844 9.11133Z" fill="#C3C9D6"/>
<path d="M12 7.86133C10.3846 7.86133 9.07031 6.54699 9.07031 4.93164C9.07031 3.31629 10.3846 2.00195 12 2.00195C13.6154 2.00195 14.9297 3.31629 14.9297 4.93164C14.9297 6.54699 13.6154 7.86133 12 7.86133Z" fill="#C3C9D6"/>
<path d="M12.5859 7.92053V11.9629C12.5859 12.2867 12.3239 12.5488 12 12.5488C11.6761 12.5488 11.4141 12.2867 11.4141 11.9629V7.92053C9.43164 8.20792 7.89844 9.90214 7.89844 11.9629V15.4785C7.89844 15.8024 8.16051 16.0644 8.48438 16.0644H9.79703L10.2445 21.4652C10.2696 21.7685 10.5237 22.0019 10.8281 22.0019H13.1719C13.4763 22.0019 13.7304 21.7685 13.7555 21.4652L14.203 16.0644H15.5156C15.8395 16.0644 16.1016 15.8024 16.1016 15.4785V11.9629C16.1016 9.90214 14.5684 8.20792 12.5859 7.92053Z" fill="#C3C9D6"/>
<path d="M6.6875 15.5566V12.041C6.6875 11.1627 6.92383 10.3466 7.30512 9.6175C6.77899 9.30344 6.17164 9.11133 5.51563 9.11133C3.57699 9.11133 2 10.6883 2 12.627V15.5566C2 15.8805 2.26207 16.1426 2.58594 16.1426H3.22738L3.76066 21.4744C3.79043 21.7736 4.04277 22.002 4.34375 22.002H6.6875C6.98848 22.002 7.24082 21.7736 7.27059 21.4744L7.70367 17.1446C7.10543 16.8638 6.6875 16.26 6.6875 15.5566Z" fill="#C3C9D6"/>
<path d="M21.9999 12.627C21.9999 10.6883 20.4229 9.11133 18.4843 9.11133C17.8283 9.11133 17.221 9.30344 16.6948 9.6175C17.0761 10.3466 17.3124 11.1627 17.3124 12.041V15.5566C17.3124 16.26 16.8945 16.8638 16.2963 17.1446L16.7294 21.4744C16.7591 21.7736 17.0115 22.002 17.3124 22.002H19.6562C19.9572 22.002 20.2095 21.7736 20.2393 21.4744L20.7726 16.1426H21.414C21.7379 16.1426 21.9999 15.8805 21.9999 15.5566V12.627Z" fill="#C3C9D6"/>
</svg>
