<svg width="16" height="16" viewBox="0 0 16 16" fill="none" xmlns="http://www.w3.org/2000/svg">
<path d="M13.6905 8.54102H12.4531C12.5792 8.88633 12.6482 9.25899 12.6482 9.64739V14.324C12.6482 14.4859 12.62 14.6413 12.5687 14.7859H14.6143C15.3785 14.7859 16.0001 14.1642 16.0001 13.4001V10.8507C16.0002 9.57714 14.964 8.54102 13.6905 8.54102Z" fill="#6E7581"/>
<path d="M3.35204 9.64739C3.35204 9.25895 3.42094 8.88633 3.54707 8.54102H2.30969C1.03613 8.54102 0 9.57714 0 10.8507V13.4001C0 14.1642 0.621657 14.7859 1.38582 14.7859H3.43151C3.38023 14.6413 3.35204 14.4859 3.35204 14.324V9.64739Z" fill="#6E7581"/>
<path d="M9.41389 7.33801H6.58508C5.31152 7.33801 4.27539 8.37414 4.27539 9.6477V14.3243C4.27539 14.5794 4.4822 14.7862 4.73733 14.7862H11.2616C11.5168 14.7862 11.7236 14.5794 11.7236 14.3243V9.6477C11.7236 8.37414 10.6875 7.33801 9.41389 7.33801Z" fill="#6E7581"/>
<path d="M7.99937 1.21387C6.46774 1.21387 5.22168 2.45993 5.22168 3.99159C5.22168 5.0305 5.79509 5.93785 6.6419 6.41422C7.04355 6.64016 7.50662 6.76929 7.99937 6.76929C8.49211 6.76929 8.95518 6.64016 9.35683 6.41422C10.2037 5.93785 10.7771 5.03047 10.7771 3.99159C10.7771 2.45996 9.53099 1.21387 7.99937 1.21387Z" fill="#6E7581"/>
<path d="M3.12227 3.80286C1.9768 3.80286 1.04492 4.73473 1.04492 5.8802C1.04492 7.02568 1.9768 7.95755 3.12227 7.95755C3.41283 7.95755 3.68952 7.89737 3.94086 7.78918C4.37543 7.60208 4.73374 7.27089 4.95546 6.85605C5.11109 6.56489 5.19962 6.23274 5.19962 5.8802C5.19962 4.73476 4.26774 3.80286 3.12227 3.80286Z" fill="#6E7581"/>
<path d="M12.8772 3.80286C11.7317 3.80286 10.7998 4.73473 10.7998 5.8802C10.7998 6.23277 10.8883 6.56492 11.044 6.85605C11.2657 7.27093 11.624 7.60211 12.0586 7.78918C12.3099 7.89737 12.5866 7.95755 12.8772 7.95755C14.0226 7.95755 14.9545 7.02568 14.9545 5.8802C14.9545 4.73473 14.0226 3.80286 12.8772 3.80286Z" fill="#6E7581"/>
</svg>
