<svg width="16" height="16" viewBox="0 0 16 16" fill="none" xmlns="http://www.w3.org/2000/svg">
<g clip-path="url(#clip0)">
<path d="M8 2C4.30342 2 1.16717 4.50678 0 8.00002C1.16717 11.4933 4.30342 14 8 14C11.6966 14 14.8328 11.4932 16 8.00002C14.8328 4.50678 11.6966 2 8 2ZM8 12C5.79084 12 4 10.2091 4 8.00002C4 5.79086 5.79084 4.00002 8 4.00002C10.2092 4.00002 12 5.79086 12 8.00002C12 10.2091 10.2092 12 8 12Z" fill="#6E7581"/>
<path d="M9.41419 6.58578C10.1952 7.36682 10.1952 8.63315 9.41419 9.41419C8.63315 10.1952 7.36682 10.1952 6.58578 9.41419C5.80474 8.63315 5.80474 7.36682 6.58578 6.58578C7.36682 5.80474 8.63315 5.80474 9.41419 6.58578Z" fill="#6E7581"/>
</g>
<defs>
<clipPath id="clip0">
<rect width="16" height="16" fill="white"/>
</clipPath>
</defs>
</svg>
