<svg width="16" height="16" viewBox="0 0 16 16" fill="none" xmlns="http://www.w3.org/2000/svg">
<path d="M15.6753 12.0189L10.017 1.60205C9.5899 0.883111 8.83565 0.453735 7.9994 0.453735C7.16315 0.453735 6.4089 0.883111 5.98184 1.60205C5.97862 1.60755 5.9759 1.61305 5.97268 1.61855L0.333185 12.0024C-0.103034 12.7365 -0.111284 13.6181 0.310716 14.3604C0.733685 15.1032 1.49568 15.5463 2.35028 15.5463H13.6173C14.4719 15.5463 15.2652 15.1032 15.6881 14.3604C16.1101 13.6181 16.1019 12.7365 15.6753 12.0189ZM7.06097 5.2234C7.06097 4.70508 7.48112 4.28496 7.9994 4.28496C8.51772 4.28496 8.93784 4.70511 8.93784 5.2234V8.97718C8.93784 9.49543 8.51768 9.91562 7.9994 9.91562C7.48112 9.91562 7.06097 9.4954 7.06097 8.97718V5.2234ZM7.9994 13.6694C7.22318 13.6694 6.59172 13.038 6.59172 12.2617C6.59172 11.4855 7.22315 10.8541 7.9994 10.8541C8.77562 10.8541 9.40706 11.4855 9.40706 12.2617C9.40709 13.038 8.77565 13.6694 7.9994 13.6694Z" fill="#FB6060"/>
</svg>
